<svg xmlns="http://www.w3.org/2000/svg" xmlns:xlink="http://www.w3.org/1999/xlink" width="500" height="500" preserveAspectRatio="xMidYMid meet" version="1.0" viewBox="0 0 375 375" zoomAndPan="magnify"><path fill="#eb451d" fill-opacity="1" fill-rule="nonzero" d="M 312.125 215.820312 C 284.246094 251.460938 271.824219 268.707031 264.445312 255.125 C 244.753906 218.890625 337.25 178.027344 235.398438 92.707031 C 251.355469 147.890625 235.007812 188.320312 232.753906 187.402344 C 228.484375 185.660156 240.394531 55.671875 152.050781 0.15625 C 151.957031 15.015625 165.621094 93.578125 132.636719 74.523438 C 75.78125 98.070312 130.199219 249.953125 130.199219 249.953125 C 130.199219 249.953125 70.433594 240.144531 87.265625 168.492188 C 80.085938 174.792969 71.890625 180.335938 64.195312 197.28125 C 45.464844 238.527344 50.863281 287.105469 78.496094 322.996094 C 99.136719 349.8125 129.878906 368.453125 165.015625 373.273438 C 176.808594 374.847656 193.117188 374.015625 201.058594 373.273438 C 265.316406 364.457031 314.863281 309.4375 314.863281 242.695312 C 314.863281 233.484375 313.921875 224.496094 312.125 215.820312"/><path fill="#eb451d" fill-opacity="1" fill-rule="nonzero" d="M 132.5 9.941406 C 132.5 9.941406 113.300781 11.105469 117.855469 24.324219 C 122.414062 37.542969 135.644531 43.84375 125.601562 53.503906 C 142.945312 47.609375 140.652344 38.242188 136.765625 34.4375 C 129.121094 26.957031 123.203125 12.003906 132.5 9.941406"/><path fill="#eb451d" fill-opacity="1" fill-rule="nonzero" d="M 79.492188 93.8125 C 79.492188 93.8125 60.292969 94.976562 64.851562 108.195312 C 69.40625 121.414062 82.640625 127.714844 72.59375 137.371094 C 89.9375 131.480469 87.644531 122.109375 83.757812 118.308594 C 76.113281 110.828125 70.195312 95.875 79.492188 93.8125"/><path fill="#eb451d" fill-opacity="1" fill-rule="nonzero" d="M 259.484375 50.253906 C 259.484375 50.253906 240.285156 51.417969 244.839844 64.636719 C 249.398438 77.851562 262.628906 84.15625 252.585938 93.8125 C 269.929688 87.921875 267.632812 78.554688 263.75 74.75 C 256.105469 67.269531 250.1875 52.3125 259.484375 50.253906"/><path fill="#ff8615" fill-opacity="1" fill-rule="nonzero" d="M 181.207031 374.167969 C 175.398438 374.167969 170.445312 373.902344 166.480469 373.371094 C 134.933594 369.042969 106.78125 352.679688 87.25 327.304688 C 62.265625 294.851562 57.160156 251.480469 73.828125 213.867188 C 75.179688 224.835938 78.714844 234.648438 84.4375 243.226562 C 100.351562 267.082031 127.273438 271.742188 128.414062 271.929688 L 146.941406 274.972656 L 140.601562 257.28125 C 140.46875 256.910156 127.199219 219.578125 120.972656 180.132812 C 116.917969 154.488281 113.4375 111.191406 132.917969 97.933594 C 135.933594 99.054688 138.84375 99.609375 141.699219 99.609375 C 141.699219 99.609375 141.703125 99.609375 141.703125 99.609375 C 147.492188 99.605469 152.644531 97.316406 156.601562 92.984375 C 166.492188 82.160156 166.75 59.960938 164.929688 34.925781 C 214.621094 80.738281 218.671875 156.316406 220.300781 186.699219 C 220.996094 199.777344 221.320312 205.746094 228.582031 208.707031 L 230.585938 209.527344 L 232.835938 209.539062 C 235 209.539062 239.121094 208.886719 242.398438 204.515625 C 247.175781 198.148438 255.929688 172.113281 252.691406 135.992188 C 264.710938 150.140625 271.339844 163.5625 272.796875 176.589844 C 274.675781 193.378906 267.78125 207.710938 261.109375 221.574219 C 253.378906 237.644531 245.382812 254.261719 254.738281 271.476562 C 259.65625 280.527344 266.71875 281.878906 270.496094 281.878906 C 280.605469 281.875 289.25 273.46875 303.800781 255.367188 C 303.417969 284.171875 292.785156 311.84375 273.765625 333.457031 C 254.621094 355.207031 228.359375 369.363281 199.792969 373.34375 C 197.382812 373.5625 189.953125 374.167969 181.207031 374.167969"/><path fill="#fbde57" fill-opacity="1" fill-rule="nonzero" d="M 181.207031 374.167969 C 175.191406 374.167969 171.46875 373.839844 169.414062 373.566406 C 143.710938 370.039062 95.5 308.222656 102.707031 283.046875 C 134.167969 309.8125 178.347656 298.652344 178.347656 298.652344 C 178.347656 298.652344 98.148438 176.476562 183.976562 83.917969 C 183.976562 128.441406 167.3125 147.25 202.230469 223.304688 C 211.222656 242.898438 236.253906 232.578125 236.253906 232.578125 C 233.136719 241.574219 220.160156 299.695312 284.890625 293.945312 C 274.113281 337.980469 220.394531 370.136719 197.265625 373.480469 C 194.84375 373.6875 188.511719 374.167969 181.207031 374.167969"/><path fill="#ffefb0" fill-opacity="1" fill-rule="nonzero" d="M 263.527344 322.472656 C 252.046875 328.417969 245.589844 338.238281 227.019531 336.992188 C 209.886719 335.84375 209.152344 268.957031 209.152344 268.957031 C 207.882812 269.5625 193.898438 315.9375 168.257812 325.679688 C 151.484375 332.054688 125.871094 326.363281 125.914062 326.453125 C 134.605469 345.199219 163.082031 368.433594 171.222656 373.871094 C 182.007812 374.578125 194.4375 373.894531 201.058594 373.273438 C 201.773438 373.175781 202.484375 373.074219 203.191406 372.964844 C 214.273438 368.769531 249.703125 343.761719 263.527344 322.472656"/></svg>