<svg xmlns="http://www.w3.org/2000/svg" xmlns:xlink="http://www.w3.org/1999/xlink" width="500" height="500" preserveAspectRatio="xMidYMid meet" version="1.0" viewBox="0 0 375 375" zoomAndPan="magnify"><defs><clipPath id="994d45a0b5"><path d="M 37.5 0 L 309.75 0 L 309.75 350 L 37.5 350 Z M 37.5 0" clip-rule="nonzero"/></clipPath><clipPath id="8b9e8cb291"><path d="M 74 40 L 309.75 40 L 309.75 350 L 74 350 Z M 74 40" clip-rule="nonzero"/></clipPath></defs><path fill="#facb07" fill-opacity="1" fill-rule="nonzero" d="M 290.164062 342.671875 C 290.164062 360.527344 237.988281 375 173.625 375 C 109.261719 375 57.085938 360.527344 57.085938 342.671875 C 57.085938 324.816406 109.261719 310.34375 173.625 310.34375 C 237.988281 310.34375 290.164062 324.816406 290.164062 342.671875"/><g clip-path="url(#994d45a0b5)"><path fill="#4466b9" fill-opacity="1" fill-rule="nonzero" d="M 309.589844 135.777344 C 309.589844 186.210938 248.082031 265.289062 207.816406 311.707031 C 188.191406 334.261719 173.625 349.136719 173.625 349.136719 C 173.625 349.136719 159.058594 334.261719 139.433594 311.707031 C 99.167969 265.289062 37.660156 186.210938 37.660156 135.777344 C 37.660156 60.765625 98.511719 0 173.625 0 C 248.714844 0 309.589844 60.765625 309.589844 135.777344"/></g><path fill="#d5ebf9" fill-opacity="1" fill-rule="nonzero" d="M 277.214844 135.777344 C 277.214844 192.90625 230.832031 239.222656 173.625 239.222656 C 116.417969 239.222656 70.035156 192.90625 70.035156 135.777344 C 70.035156 78.648438 116.417969 32.328125 173.625 32.328125 C 230.832031 32.328125 277.214844 78.648438 277.214844 135.777344"/><g clip-path="url(#8b9e8cb291)"><path fill="#3b5bb2" fill-opacity="1" fill-rule="nonzero" d="M 277.214844 135.777344 C 277.214844 192.90625 230.832031 239.222656 173.625 239.222656 C 146.84375 239.222656 122.511719 228.996094 104.125 212.328125 C 94.566406 217.679688 84.777344 222.65625 74.761719 227.253906 C 94.945312 258.417969 119.730469 288.976562 139.433594 311.707031 C 159.058594 334.261719 173.625 349.136719 173.625 349.136719 C 173.625 349.136719 188.191406 334.261719 207.816406 311.707031 C 248.082031 265.289062 309.589844 186.210938 309.589844 135.777344 C 309.589844 98.546875 294.566406 64.832031 270.261719 40.308594 C 265.050781 50.410156 259.488281 60.285156 253.492188 69.882812 C 268.3125 87.789062 277.214844 110.746094 277.214844 135.777344"/></g><path fill="#b9ccda" fill-opacity="1" fill-rule="nonzero" d="M 277.214844 135.777344 C 277.214844 110.746094 268.3125 87.789062 253.492188 69.882812 C 216.570312 129.03125 165.128906 178.128906 104.125 212.328125 C 122.511719 228.996094 146.84375 239.222656 173.625 239.222656 C 230.832031 239.222656 277.214844 192.90625 277.214844 135.777344"/><path fill="#ec1d27" fill-opacity="1" fill-rule="nonzero" d="M 251.316406 122.84375 L 231.894531 122.84375 L 231.894531 187.5 L 193.046875 187.5 L 193.046875 161.636719 C 193.046875 154.515625 187.207031 148.707031 180.097656 148.707031 L 167.152344 148.707031 C 160.019531 148.707031 154.203125 154.515625 154.203125 161.636719 L 154.203125 187.5 L 115.355469 187.5 L 115.355469 122.84375 L 95.933594 122.84375 L 174.460938 58.191406 L 251.316406 122.84375"/><path fill="#66686d" fill-opacity="1" fill-rule="nonzero" d="M 193.046875 161.636719 L 193.046875 187.5 L 154.203125 187.5 L 154.203125 161.636719 C 154.203125 154.515625 160.019531 148.707031 167.152344 148.707031 L 180.097656 148.707031 C 187.207031 148.707031 193.046875 154.515625 193.046875 161.636719"/><path fill="#facb07" fill-opacity="1" fill-rule="nonzero" d="M 173.625 96.984375 C 180.730469 96.984375 186.574219 102.792969 186.574219 109.914062 C 186.574219 117.035156 180.730469 122.84375 173.625 122.84375 C 166.492188 122.84375 160.675781 117.035156 160.675781 109.914062 C 160.675781 102.792969 166.492188 96.984375 173.625 96.984375"/><path fill="#a92122" fill-opacity="1" fill-rule="nonzero" d="M 238.371094 200.429688 L 108.878906 200.429688 C 105.316406 200.429688 102.40625 197.527344 102.40625 193.964844 C 102.40625 190.40625 105.316406 187.5 108.878906 187.5 L 238.371094 187.5 C 241.933594 187.5 244.84375 190.40625 244.84375 193.964844 C 244.84375 197.527344 241.933594 200.429688 238.371094 200.429688"/></svg>