<svg xmlns="http://www.w3.org/2000/svg" xmlns:xlink="http://www.w3.org/1999/xlink" width="500" height="500" preserveAspectRatio="xMidYMid meet" version="1.0" viewBox="0 0 375 375" zoomAndPan="magnify"><defs><clipPath id="22b89815a4"><path d="M 54.671875 4.074219 L 337.421875 4.074219 L 337.421875 375 L 54.671875 375 Z M 54.671875 4.074219" clip-rule="nonzero"/></clipPath></defs><g clip-path="url(#22b89815a4)"><path fill="#ff3d00" fill-opacity="1" fill-rule="nonzero" d="M 196.046875 4.074219 C 118.019531 4.074219 54.777344 67.390625 54.777344 145.503906 C 54.777344 251.574219 196.046875 375.324219 196.046875 375.324219 C 196.046875 375.324219 337.3125 251.574219 337.3125 145.503906 C 337.3125 67.390625 274.070312 4.074219 196.046875 4.074219 Z M 196.046875 4.074219"/></g><path fill="#f5f5f5" fill-opacity="1" fill-rule="nonzero" d="M 196.046875 48.273438 C 194.457031 48.273438 192.867188 48.3125 191.28125 48.390625 C 189.691406 48.46875 188.105469 48.585938 186.523438 48.738281 C 184.945312 48.894531 183.367188 49.089844 181.792969 49.324219 C 180.222656 49.558594 178.65625 49.828125 177.097656 50.140625 C 175.539062 50.449219 173.988281 50.800781 172.445312 51.1875 C 170.90625 51.574219 169.371094 51.996094 167.851562 52.457031 C 166.332031 52.921875 164.820312 53.417969 163.324219 53.957031 C 161.828125 54.492188 160.347656 55.0625 158.878906 55.671875 C 157.410156 56.28125 155.957031 56.925781 154.519531 57.605469 C 153.082031 58.289062 151.664062 59.003906 150.261719 59.753906 C 148.859375 60.503906 147.476562 61.285156 146.113281 62.105469 C 144.75 62.921875 143.410156 63.773438 142.085938 64.660156 C 140.765625 65.542969 139.464844 66.457031 138.1875 67.40625 C 136.914062 68.355469 135.660156 69.332031 134.429688 70.34375 C 133.203125 71.351562 132 72.390625 130.820312 73.460938 C 129.644531 74.527344 128.492188 75.625 127.371094 76.75 C 126.246094 77.875 125.148438 79.027344 124.082031 80.207031 C 123.015625 81.386719 121.976562 82.589844 120.96875 83.820312 C 119.960938 85.050781 118.984375 86.304688 118.035156 87.582031 C 117.089844 88.859375 116.175781 90.160156 115.289062 91.484375 C 114.40625 92.808594 113.558594 94.152344 112.742188 95.515625 C 111.921875 96.882812 111.140625 98.265625 110.390625 99.667969 C 109.640625 101.074219 108.925781 102.492188 108.246094 103.933594 C 107.566406 105.371094 106.925781 106.824219 106.316406 108.292969 C 105.707031 109.765625 105.136719 111.25 104.601562 112.746094 C 104.066406 114.246094 103.566406 115.757812 103.105469 117.277344 C 102.644531 118.800781 102.21875 120.335938 101.832031 121.878906 C 101.449219 123.421875 101.097656 124.972656 100.789062 126.535156 C 100.480469 128.09375 100.207031 129.664062 99.972656 131.238281 C 99.742188 132.8125 99.546875 134.390625 99.390625 135.972656 C 99.234375 137.558594 99.117188 139.144531 99.039062 140.734375 C 98.960938 142.324219 98.921875 143.914062 98.921875 145.503906 C 98.921875 147.09375 98.960938 148.683594 99.039062 150.273438 C 99.117188 151.863281 99.234375 153.449219 99.390625 155.035156 C 99.546875 156.617188 99.742188 158.195312 99.972656 159.769531 C 100.207031 161.34375 100.480469 162.914062 100.789062 164.472656 C 101.097656 166.035156 101.449219 167.585938 101.832031 169.128906 C 102.21875 170.671875 102.644531 172.207031 103.105469 173.730469 C 103.566406 175.25 104.066406 176.761719 104.601562 178.261719 C 105.136719 179.757812 105.707031 181.242188 106.316406 182.714844 C 106.925781 184.183594 107.566406 185.636719 108.246094 187.074219 C 108.925781 188.515625 109.640625 189.933594 110.390625 191.339844 C 111.140625 192.742188 111.921875 194.125 112.742188 195.492188 C 113.558594 196.855469 114.40625 198.199219 115.289062 199.523438 C 116.175781 200.847656 117.089844 202.148438 118.035156 203.425781 C 118.984375 204.703125 119.960938 205.957031 120.96875 207.1875 C 121.976562 208.417969 123.015625 209.621094 124.082031 210.800781 C 125.148438 211.980469 126.246094 213.132812 127.371094 214.257812 C 128.492188 215.382812 129.644531 216.480469 130.820312 217.546875 C 132 218.617188 133.203125 219.65625 134.429688 220.664062 C 135.660156 221.675781 136.914062 222.652344 138.1875 223.601562 C 139.464844 224.550781 140.765625 225.464844 142.085938 226.347656 C 143.410156 227.234375 144.75 228.085938 146.113281 228.902344 C 147.476562 229.722656 148.859375 230.503906 150.261719 231.253906 C 151.664062 232.003906 153.082031 232.71875 154.519531 233.402344 C 155.957031 234.082031 157.410156 234.726562 158.878906 235.335938 C 160.347656 235.945312 161.828125 236.515625 163.324219 237.050781 C 164.820312 237.589844 166.332031 238.085938 167.851562 238.550781 C 169.371094 239.011719 170.90625 239.433594 172.445312 239.820312 C 173.988281 240.207031 175.539062 240.558594 177.097656 240.867188 C 178.65625 241.179688 180.222656 241.449219 181.792969 241.683594 C 183.367188 241.917969 184.945312 242.113281 186.523438 242.269531 C 188.105469 242.425781 189.691406 242.539062 191.28125 242.617188 C 192.867188 242.695312 194.457031 242.734375 196.046875 242.734375 C 197.632812 242.734375 199.222656 242.695312 200.808594 242.617188 C 202.398438 242.539062 203.984375 242.425781 205.566406 242.269531 C 207.144531 242.113281 208.722656 241.917969 210.296875 241.683594 C 211.867188 241.449219 213.433594 241.179688 214.992188 240.867188 C 216.550781 240.558594 218.101562 240.207031 219.644531 239.820312 C 221.183594 239.433594 222.71875 239.011719 224.238281 238.550781 C 225.757812 238.085938 227.269531 237.589844 228.765625 237.050781 C 230.261719 236.515625 231.742188 235.945312 233.210938 235.335938 C 234.679688 234.726562 236.132812 234.082031 237.570312 233.402344 C 239.007812 232.71875 240.425781 232.003906 241.828125 231.253906 C 243.230469 230.503906 244.613281 229.722656 245.976562 228.902344 C 247.339844 228.085938 248.679688 227.234375 250.003906 226.347656 C 251.324219 225.464844 252.625 224.550781 253.902344 223.601562 C 255.175781 222.652344 256.429688 221.675781 257.660156 220.664062 C 258.886719 219.65625 260.089844 218.617188 261.269531 217.546875 C 262.445312 216.480469 263.597656 215.382812 264.71875 214.257812 C 265.84375 213.132812 266.941406 211.980469 268.007812 210.800781 C 269.074219 209.621094 270.113281 208.417969 271.121094 207.1875 C 272.128906 205.957031 273.105469 204.703125 274.054688 203.425781 C 275 202.148438 275.914062 200.847656 276.800781 199.523438 C 277.683594 198.199219 278.53125 196.855469 279.347656 195.492188 C 280.167969 194.125 280.949219 192.742188 281.699219 191.339844 C 282.449219 189.933594 283.164062 188.515625 283.84375 187.074219 C 284.523438 185.636719 285.164062 184.183594 285.773438 182.714844 C 286.382812 181.242188 286.953125 179.757812 287.488281 178.261719 C 288.023438 176.761719 288.523438 175.25 288.984375 173.730469 C 289.445312 172.207031 289.871094 170.671875 290.257812 169.128906 C 290.640625 167.585938 290.992188 166.035156 291.300781 164.472656 C 291.609375 162.914062 291.882812 161.34375 292.117188 159.769531 C 292.347656 158.195312 292.542969 156.617188 292.699219 155.035156 C 292.855469 153.449219 292.972656 151.863281 293.050781 150.273438 C 293.128906 148.683594 293.167969 147.09375 293.167969 145.503906 C 293.167969 143.914062 293.128906 142.324219 293.050781 140.734375 C 292.972656 139.144531 292.855469 137.558594 292.699219 135.972656 C 292.542969 134.390625 292.347656 132.8125 292.117188 131.238281 C 291.882812 129.664062 291.609375 128.09375 291.300781 126.535156 C 290.992188 124.972656 290.640625 123.421875 290.257812 121.878906 C 289.871094 120.335938 289.445312 118.800781 288.984375 117.277344 C 288.523438 115.757812 288.023438 114.246094 287.488281 112.746094 C 286.953125 111.25 286.382812 109.765625 285.773438 108.292969 C 285.164062 106.824219 284.523438 105.371094 283.84375 103.933594 C 283.164062 102.492188 282.449219 101.074219 281.699219 99.667969 C 280.949219 98.265625 280.167969 96.882812 279.347656 95.515625 C 278.53125 94.152344 277.683594 92.808594 276.800781 91.484375 C 275.914062 90.160156 275 88.859375 274.054688 87.582031 C 273.105469 86.304688 272.128906 85.050781 271.121094 83.820312 C 270.113281 82.589844 269.074219 81.386719 268.007812 80.207031 C 266.941406 79.027344 265.84375 77.875 264.71875 76.75 C 263.597656 75.625 262.445312 74.527344 261.269531 73.460938 C 260.089844 72.390625 258.886719 71.351562 257.660156 70.34375 C 256.429688 69.332031 255.175781 68.355469 253.902344 67.40625 C 252.625 66.457031 251.324219 65.542969 250.003906 64.660156 C 248.679688 63.773438 247.339844 62.921875 245.976562 62.105469 C 244.613281 61.285156 243.230469 60.503906 241.828125 59.753906 C 240.425781 59.003906 239.007812 58.289062 237.570312 57.605469 C 236.132812 56.925781 234.679688 56.28125 233.210938 55.671875 C 231.742188 55.0625 230.261719 54.492188 228.765625 53.957031 C 227.269531 53.417969 225.757812 52.921875 224.238281 52.457031 C 222.71875 51.996094 221.183594 51.574219 219.644531 51.1875 C 218.101562 50.800781 216.550781 50.449219 214.992188 50.140625 C 213.433594 49.828125 211.867188 49.558594 210.296875 49.324219 C 208.722656 49.089844 207.144531 48.894531 205.566406 48.738281 C 203.984375 48.585938 202.398438 48.46875 200.808594 48.390625 C 199.222656 48.3125 197.632812 48.273438 196.046875 48.273438 Z M 196.046875 48.273438"/><path fill="#1976d2" fill-opacity="1" fill-rule="nonzero" d="M 240.191406 121.515625 L 240.191406 92.46875 L 222.53125 92.46875 L 222.53125 106.355469 L 196.046875 83.628906 L 134.238281 136.664062 L 143.070312 136.664062 L 143.070312 198.539062 L 178.386719 198.539062 L 178.386719 154.34375 L 213.703125 154.34375 L 213.703125 198.539062 L 249.019531 198.539062 L 249.019531 136.664062 L 257.851562 136.664062 Z M 240.191406 121.515625"/></svg>