<svg xmlns="http://www.w3.org/2000/svg" width="25" height="24" fill="none" viewBox="0 0 25 24"><g clip-path="url(#clip0_2042_876)"><path stroke="#6D6D6D" stroke-linecap="round" stroke-linejoin="round" stroke-width="2" d="M8.75 12H4.75C4.19772 12 3.75 12.4477 3.75 13V19C3.75 19.5523 4.19772 20 4.75 20H8.75C9.30228 20 9.75 19.5523 9.75 19V13C9.75 12.4477 9.30228 12 8.75 12Z"/><path stroke="#6D6D6D" stroke-linecap="round" stroke-linejoin="round" stroke-width="2" d="M20.75 8H16.75C16.1977 8 15.75 8.44772 15.75 9V19C15.75 19.5523 16.1977 20 16.75 20H20.75C21.3023 20 21.75 19.5523 21.75 19V9C21.75 8.44772 21.3023 8 20.75 8Z"/><path stroke="#6D6D6D" stroke-linecap="round" stroke-linejoin="round" stroke-width="2" d="M14.75 4H10.75C10.1977 4 9.75 4.44772 9.75 5V19C9.75 19.5523 10.1977 20 10.75 20H14.75C15.3023 20 15.75 19.5523 15.75 19V5C15.75 4.44772 15.3023 4 14.75 4Z"/><path stroke="#6D6D6D" stroke-linecap="round" stroke-linejoin="round" stroke-width="2" d="M4.75 20H18.75"/></g><defs><clipPath id="clip0_2042_876"><rect width="24" height="24" fill="#fff" transform="translate(0.75)"/></clipPath></defs></svg>